<svg id="visual" viewBox="0 0 900 600" width="900" height="600" xmlns="http://www.w3.org/2000/svg" xmlns:xlink="http://www.w3.org/1999/xlink" version="1.1"><rect x="0" y="0" width="900" height="600" fill="#00122000"></rect><defs><linearGradient id="grad1_0" x1="33.3%" y1="0%" x2="100%" y2="100%"><stop offset="20%" stop-color="#00122000" stop-opacity="1"></stop><stop offset="80%" stop-color="#00122000" stop-opacity="1"></stop></linearGradient></defs><defs><linearGradient id="grad2_0" x1="0%" y1="0%" x2="66.7%" y2="100%"><stop offset="20%" stop-color="#00122000" stop-opacity="1"></stop><stop offset="80%" stop-color="#00122000" stop-opacity="1"></stop></linearGradient></defs><g transform="translate(900, 0)"><path d="M0 351.5C-47.9 348.3 -95.8 345.2 -134.5 324.8C-173.3 304.4 -202.9 266.8 -232.6 232.6C-262.4 198.4 -292.4 167.6 -312.3 129.3C-332.1 91.1 -341.8 45.6 -351.5 0L0 0Z" fill="#ff3700"></path></g><g transform="translate(0, 600)"><path d="M0 -351.5C43.6 -344.2 87.2 -336.9 133.6 -322.4C179.9 -308 228.9 -286.5 248.6 -248.6C268.2 -210.6 258.4 -156.3 270.7 -112.1C283 -68 317.2 -34 351.5 0L0 0Z" fill="#ff3700"></path></g></svg>